<svg width="548" height="151" viewBox="0 0 548 151" fill="none" xmlns="http://www.w3.org/2000/svg">
<rect y="0.5" width="548" height="150" rx="10" fill="#F1F1F1"/>
<g clip-path="url(#clip0_1_73)">
<path d="M86 129.125C86 128.76 86.1449 128.411 86.4027 128.153C86.6606 127.895 87.0103 127.75 87.375 127.75H109.625C109.99 127.75 110.339 127.895 110.597 128.153C110.855 128.411 111 128.76 111 129.125C111 129.49 110.855 129.839 110.597 130.097C110.339 130.355 109.99 130.5 109.625 130.5H87.375C87.0103 130.5 86.6606 130.355 86.4027 130.097C86.1449 129.839 86 129.49 86 129.125Z" fill="#061802"/>
<path d="M260.667 37.4166C260.667 36.0905 261.193 34.8188 262.131 33.8811C263.069 32.9434 264.341 32.4166 265.667 32.4166H280.667C281.993 32.4166 283.265 32.9434 284.202 33.8811C285.14 34.8188 285.667 36.0905 285.667 37.4166V125.5C285.667 126.826 285.14 128.098 284.202 129.035C283.265 129.973 281.993 130.5 280.667 130.5H265.667C264.341 130.5 263.069 129.973 262.131 129.035C261.193 128.098 260.667 126.826 260.667 125.5V37.4166Z" fill="#061802"/>
<path d="M435.333 34.6666C435.333 33.3405 435.86 32.0688 436.798 31.1311C437.735 30.1934 439.007 29.6666 440.333 29.6666H455.333C456.659 29.6666 457.931 30.1934 458.869 31.1311C459.807 32.0688 460.333 33.3405 460.333 34.6666V125.5C460.333 126.826 459.807 128.098 458.869 129.035C457.931 129.973 456.659 130.5 455.333 130.5H440.333C439.007 130.5 437.735 129.973 436.798 129.035C435.86 128.098 435.333 126.826 435.333 125.5V34.6666Z" fill="#061802"/>
</g>
<defs>
<clipPath id="clip0_1_73">
<rect width="524" height="150" fill="white" transform="translate(12 0.5)"/>
</clipPath>
</defs>
</svg>
