<svg width="17" height="27" viewBox="0 0 17 27" fill="none" xmlns="http://www.w3.org/2000/svg">
<g clip-path="url(#clip0_1_19)">
<path d="M13.5241 0.361211C13.6753 0.453406 13.7924 0.596807 13.8561 0.767987C13.9198 0.939167 13.9264 1.12801 13.8749 1.30366L11.0916 10.8126H16.227C16.3779 10.8126 16.5255 10.859 16.6517 10.9461C16.7778 11.0333 16.8769 11.1573 16.9367 11.303C16.9965 11.4487 17.0145 11.6096 16.9883 11.7659C16.9622 11.9222 16.893 12.067 16.7895 12.1824L4.42633 25.9941C4.3067 26.1279 4.14752 26.2151 3.97472 26.2415C3.80193 26.268 3.6257 26.2321 3.47478 26.1397C3.32386 26.0474 3.20713 25.904 3.14363 25.733C3.08013 25.562 3.0736 25.3734 3.1251 25.1979L5.90837 15.6873H0.773007C0.622091 15.6874 0.474461 15.641 0.348341 15.5539C0.222221 15.4667 0.123132 15.3426 0.0633065 15.197C0.00348113 15.0513 -0.0144617 14.8904 0.0116927 14.7341C0.0378472 14.5778 0.106954 14.433 0.210482 14.3175L12.5737 0.505828C12.6931 0.372259 12.8521 0.285115 13.0246 0.258564C13.1972 0.232013 13.3732 0.267617 13.5241 0.359587V0.361211Z" fill="#061802"/>
</g>
<defs>
<clipPath id="clip0_1_19">
<rect width="17" height="26" fill="white" transform="translate(0 0.25)"/>
</clipPath>
</defs>
</svg>
